# xmcd
#
# Track frame offsets:
#	150
#	10967
#	30650
#	44527
#	68535
#	83677
#	102790
#	122785
#	138137
#	151917
#	168505
#	182525
#	198212
#
# Disc length: 2807 seconds
#
# Revision: 1
# Processed by: cddbd v1.5.1PL2 Copyright (c) Steve Scherf et al.
# Submitted via: dBpowerAMP V4.0
#
DISCID=9a0af50d
DTITLE=Terry Robb - Resting Place
DYEAR=2005
DGENRE=Blues
TTITLE0=My Baby Left Me
TTITLE1=My Mind is Trying to Leave Me
TTITLE2=Madison Ave. Shuffle
TTITLE3=Louise
TTITLE4=Resting Place
TTITLE5=Hesitation Blues - Knowing What Blues
TTITLE6=Back to Memphis
TTITLE7=Like Merle
TTITLE8=Cassie
TTITLE9=Lonely Avenue
TTITLE10=Joe Kirby Blues
TTITLE11=Fare Thee Well Blues
TTITLE12=My Sweet Potato
EXTD=(c) (p) 2005 Yellow Dog Records\nwww.yellowdogrecords.com/terryrobb
EXTT0=
EXTT1=
EXTT2=
EXTT3=
EXTT4=
EXTT5=
EXTT6=
EXTT7=
EXTT8=
EXTT9=
EXTT10=
EXTT11=
EXTT12=
PLAYORDER=
